<?xml version="1.0" standalone="no"?>
<!DOCTYPE svg PUBLIC "-//W3C//DTD SVG 20010904//EN"
 "http://www.w3.org/TR/2001/REC-SVG-20010904/DTD/svg10.dtd">
<svg version="1.0" xmlns="http://www.w3.org/2000/svg"
 width="300pt" height="80pt" viewBox="150 -40 250 160"
 preserveAspectRatio="xMidYMid meet">

<g transform="translate(0.000000,134.000000) scale(0.100000,-0.100000)"
fill="#F0F2F5" stroke="none">
<path d="M686 1138 c-22 -31 -21 -110 2 -135 9 -11 36 -25 58 -32 54 -14 88
-42 120 -97 29 -49 46 -57 124 -52 36 2 56 8 63 20 27 42 -60 185 -151 246
-45 30 -154 72 -187 72 -8 0 -21 -10 -29 -22z"/>
<path d="M1564 1150 c-43 -14 -71 -46 -58 -68 21 -33 75 -53 136 -49 88 5 127
57 78 102 -24 21 -109 29 -156 15z"/>
<path d="M2150 1153 c0 -4 80 -213 178 -463 l178 -455 84 0 85 0 3 463 2 462
-80 0 -80 0 -2 -247 -3 -248 -62 160 c-34 88 -77 198 -95 245 l-34 85 -87 3
c-48 1 -87 -1 -87 -5z"/>
<path d="M2734 1147 c-3 -8 -4 -45 -2 -83 l3 -69 255 0 255 0 3 83 3 82 -256
0 c-205 0 -257 -3 -261 -13z"/>
<path d="M3300 870 l0 -290 85 0 85 0 -2 288 -3 287 -82 3 -83 3 0 -291z"/>
<path d="M3530 1075 l0 -84 58 -3 57 -3 3 -109 c2 -71 -1 -113 -9 -122 -7 -8
-31 -14 -60 -14 l-49 0 0 -79 c0 -79 0 -80 26 -83 15 -2 31 -10 35 -18 4 -8
25 -80 45 -160 20 -80 42 -151 47 -158 9 -12 148 -18 159 -7 3 3 -17 94 -45
201 l-50 195 36 37 37 38 0 165 0 165 -63 62 -63 62 -82 0 -82 0 0 -85z"/>
<path d="M3952 1097 l-62 -63 0 -340 0 -341 65 -62 c64 -62 65 -62 117 -59
l53 3 3 83 3 82 -29 0 c-51 0 -52 3 -52 296 0 289 0 289 50 296 24 3 25 6 28
86 l3 82 -58 0 c-59 0 -59 0 -121 -63z"/>
<path d="M4192 1078 c3 -80 4 -83 28 -86 50 -7 50 -7 50 -293 0 -291 -2 -299
-56 -299 -25 0 -25 -1 -22 -82 l3 -83 54 -3 54 -3 64 63 63 62 0 339 0 338
-57 65 -57 64 -63 0 -64 0 3 -82z"/>
<path d="M4490 810 l0 -350 80 0 80 0 0 350 0 350 -80 0 -80 0 0 -350z"/>
<path d="M4960 890 l0 -270 80 0 80 0 0 270 0 270 -80 0 -80 0 0 -270z"/>
<path d="M5184 1147 c-3 -8 -4 -45 -2 -83 l3 -69 110 0 110 0 3 83 3 82 -111
0 c-84 0 -112 -3 -116 -13z"/>
<path d="M454 1121 c-141 -67 -221 -183 -245 -358 -13 -92 7 -215 47 -296 48
-100 176 -204 272 -223 51 -10 62 7 62 91 l0 72 -49 23 c-91 42 -144 121 -157
231 -15 128 39 241 142 295 l59 31 0 79 0 79 -35 3 c-23 2 -57 -8 -96 -27z"/>
<path d="M1765 1130 c-3 -6 -3 -15 0 -21 4 -5 1 -24 -5 -40 -27 -64 -154 -105
-247 -80 -48 13 -93 60 -93 97 0 32 -18 30 -63 -7 -72 -59 -34 -124 100 -170
57 -20 88 -24 188 -24 104 0 127 3 171 23 56 25 98 64 109 100 5 18 -1 29 -26
53 -42 39 -126 82 -134 69z"/>
<path d="M1940 995 c0 -8 -16 -32 -35 -54 -113 -125 -446 -148 -594 -41 -23
17 -47 42 -53 56 -15 32 -28 27 -55 -22 -29 -51 -29 -57 8 -99 90 -102 303
-159 506 -135 144 17 236 53 297 116 l35 36 -26 52 c-45 91 -83 132 -83 91z"/>
<path d="M2153 605 l2 -370 75 0 75 0 3 173 2 172 -71 183 c-39 100 -75 189
-80 197 -5 9 -8 -143 -6 -355z"/>
<path d="M2912 583 l3 -348 78 -3 77 -3 0 351 0 350 -80 0 -80 0 2 -347z"/>
<path d="M2014 779 c-40 -41 -154 -96 -239 -114 -94 -20 -287 -19 -378 1 -79
18 -186 65 -213 95 -33 36 -44 24 -44 -47 0 -61 2 -68 33 -97 46 -44 159 -93
256 -111 105 -20 295 -21 396 -1 88 17 210 69 231 99 22 31 17 206 -5 206 -4
0 -20 -14 -37 -31z"/>
<path d="M5187 774 c-4 -4 -7 -40 -7 -81 l0 -73 80 0 81 0 -3 78 -3 77 -70 3
c-39 1 -74 0 -78 -4z"/>
<path d="M876 533 c-38 -60 -87 -100 -143 -118 -56 -18 -63 -29 -63 -102 0
-63 25 -84 82 -72 71 16 144 55 196 103 58 55 115 154 110 194 -3 27 -4 27
-80 30 l-77 3 -25 -38z"/>
<path d="M4962 398 l3 -163 78 -3 77 -3 0 166 0 165 -80 0 -80 0 2 -162z"/>
<path d="M1973 519 c-99 -56 -186 -72 -393 -73 -172 0 -191 2 -265 25 -44 15
-88 29 -97 34 -31 13 -21 -28 15 -62 41 -40 77 -57 168 -83 156 -44 388 -35
516 20 42 18 56 31 87 83 35 59 44 88 29 86 -5 -1 -31 -14 -60 -30z"/>
<path d="M3302 378 l3 -143 80 0 80 0 3 143 3 142 -86 0 -86 0 3 -142z"/>
<path d="M4492 318 l3 -83 75 0 75 0 3 83 3 82 -81 0 -81 0 3 -82z"/>
<path d="M4710 315 l0 -86 98 3 97 3 3 83 3 82 -101 0 -100 0 0 -85z"/>
<path d="M5184 387 c-3 -8 -4 -45 -2 -83 l3 -69 110 0 110 0 3 83 3 82 -111 0
c-84 0 -112 -3 -116 -13z"/>
<path d="M1720 293 c-56 -9 -121 -12 -192 -8 -122 6 -140 -5 -50 -31 81 -25
201 -22 277 6 67 25 104 51 70 49 -11 -1 -58 -8 -105 -16z"/>
</g>
</svg>
